<?xml version="1.0" standalone="no"?>
<!DOCTYPE svg PUBLIC "-//W3C//DTD SVG 20010904//EN"
 "http://www.w3.org/TR/2001/REC-SVG-20010904/DTD/svg10.dtd">
<svg version="1.0" xmlns="http://www.w3.org/2000/svg"
 width="4167.000000pt" height="4167.000000pt" viewBox="0 0 4167.000000 4167.000000"
 preserveAspectRatio="xMidYMid meet">

<g transform="translate(0.000000,4167.000000) scale(0.100000,-0.100000)"
fill="#000000" stroke="none">
<path d="M20395 40584 c-22 -2 -112 -9 -200 -15 -88 -6 -251 -21 -363 -35
-1890 -225 -3648 -1093 -4980 -2458 -1494 -1532 -2332 -3527 -2378 -5661 -7
-309 4 -438 51 -627 174 -684 717 -1198 1417 -1340 98 -20 143 -23 343 -23
200 0 245 3 343 23 354 72 678 242 925 485 281 277 450 601 523 997 9 50 19
196 24 350 11 312 22 446 56 670 200 1315 951 2488 2064 3225 531 352 1101
585 1720 704 479 92 1013 108 1505 45 1799 -229 3326 -1498 3891 -3232 96
-294 172 -660 211 -1012 16 -144 17 -527 20 -5369 3 -4629 2 -5213 -12 -5208
-8 4 -54 33 -102 65 -239 160 -522 326 -808 473 -1428 735 -3041 1039 -4650
879 -2332 -233 -4448 -1429 -5862 -3315 -650 -866 -1133 -1875 -1402 -2925
-277 -1084 -334 -2239 -165 -3350 339 -2225 1572 -4228 3413 -5542 1139 -813
2467 -1327 3853 -1492 374 -45 498 -51 1018 -51 518 1 639 7 1030 56 2763 343
5183 2058 6435 4559 457 914 733 1863 839 2895 42 406 41 98 41 9260 0 9123 1
8915 -40 9375 -124 1384 -588 2701 -1360 3865 -328 494 -625 856 -1059 1291
-435 434 -797 731 -1291 1059 -1076 714 -2293 1166 -3565 1324 -365 46 -501
53 -980 56 -256 2 -483 1 -505 -1z m863 -20443 c485 -75 924 -259 1312 -552
859 -648 1283 -1708 1109 -2771 -105 -645 -438 -1249 -926 -1681 l-113 -100 0
-1751 c0 -1166 -4 -1780 -11 -1836 -53 -428 -259 -825 -567 -1096 -361 -317
-831 -476 -1290 -436 -241 21 -423 72 -637 178 -338 167 -611 441 -779 779
-100 201 -153 384 -175 604 -7 68 -11 677 -11 1780 l-1 1676 -101 75 c-118 87
-385 347 -482 470 -339 429 -538 896 -618 1455 -8 57 -13 189 -12 360 0 229 3
292 22 414 150 959 740 1759 1607 2177 269 129 543 214 827 254 205 29 200 28
468 25 185 -2 278 -8 378 -24z"/>
<path d="M20332 29530 c-268 -10 -506 -26 -785 -50 -3847 -344 -7386 -2246
-9816 -5275 -2288 -2851 -3377 -6428 -3075 -10095 211 -2570 1137 -5059 2662
-7157 1489 -2049 3513 -3677 5826 -4687 2266 -990 4766 -1370 7241 -1100 2121
231 4153 933 5965 2062 2438 1519 4380 3764 5525 6387 593 1360 966 2786 1115
4260 63 633 89 1409 55 1668 -142 1083 -1208 1798 -2261 1517 -665 -177 -1168
-710 -1311 -1390 -21 -103 -26 -162 -38 -548 -15 -449 -31 -698 -66 -1007
-216 -1936 -971 -3786 -2172 -5324 -496 -634 -1099 -1246 -1722 -1747 -1206
-970 -2591 -1656 -4092 -2028 -572 -142 -1127 -230 -1773 -282 -269 -21 -996
-30 -1286 -15 -1512 78 -2888 436 -4214 1098 -1396 695 -2602 1671 -3575 2892
-1757 2206 -2556 5002 -2235 7821 115 1004 383 2016 778 2940 880 2058 2386
3784 4310 4939 1439 864 3048 1366 4747 1481 88 6 324 15 525 20 201 5 394 14
430 20 524 87 961 361 1241 779 414 616 419 1399 12 2016 -278 421 -716 704
-1223 791 -115 19 -478 26 -788 14z"/>
</g>
</svg>
